ffmpeg started on 2025-07-07 at 19:36:49
Report written to "D:\Convert\FFMetrics\reports\psnr_report-6.txt"
Log level: 32
Command line:
ffmpeg -hide_banner -nostdin -i "D:\\\xc0\xed\xe8\xec\xe5\\[\xd2\xee\xef-5]\\\xd1\xf2\xe0\xeb\xfc\xed\xe0\xff \xf2\xf0\xe5\xe2\xee\xe3\xe0!\\\xd2\xc2-3\\Full Metal Panic! Fumoffu [Opening & Ending]\\Full Metal Panic! Fumoffu ED1_HEVC.mkv" -i "D:\\\xc0\xed\xe8\xec\xe5\\[\xd2\xee\xef-5]\\\xd1\xf2\xe0\xeb\xfc\xed\xe0\xff \xf2\xf0\xe5\xe2\xee\xe3\xe0!\\\xd2\xc2-3\\Full Metal Panic! Fumoffu [Opening & Ending]\\Full Metal Panic! Fumoffu ED1.mkv" -lavfi "[0:v]settb=AVTB,setpts=PTS-STARTPTS,format=pix_fmts=yuv420p10,fps=30000/1001,scale=1440:1080:flags=bicubic[main];[1:v]settb=AVTB,setpts=PTS-STARTPTS,format=pix_fmts=yuv420p,fps=30000/1001,scale=1440:1080:flags=bicubic[ref];[main][ref]psnr=eof_action=endall:stats_file='D\\:/Convert/FFMetrics/logs/psnr_logfile-6.txt'" -f null -
[aist#0:1/aac @ 000002387b5a7dc0] Guessed Channel Layout: 5.1
Input #0, matroska,webm, from 'D:\Аниме\[Топ-5]\Стальная тревога!\ТВ-3\Full Metal Panic! Fumoffu [Opening & Ending]\Full Metal Panic! Fumoffu ED1_HEVC.mkv':
  Metadata:
    ENCODER         : Lavf61.7.100
  Duration: 00:01:01.72, start: -0.021000, bitrate: 689 kb/s
  Stream #0:0(jpn): Video: hevc (Main 10), yuv420p10le(tv, bt709, progressive), 1440x1080 [SAR 1:1 DAR 4:3], 29.97 fps, 29.97 tbr, 1k tbn (default)
      Metadata:
        title           : Full Metal Panic? Fumoffu Eizou Tokuten - NC ED1
        ENCODER         : Lavc61.19.100 libx265
        BPS             : 495545
        DURATION        : 00:01:01.661366666
        NUMBER_OF_FRAMES: 1848
        NUMBER_OF_BYTES : 3819477
        _STATISTICS_WRITING_APP: mkvpropedit v66.0.0 ('Josie') 64-bit
        _STATISTICS_WRITING_DATE_UTC: 2025-07-07 16:27:33
        _STATISTICS_TAGS: BPS DURATION NUMBER_OF_FRAMES NUMBER_OF_BYTES
  Stream #0:1(jpn): Audio: aac (LC), 48000 Hz, 5.1, fltp (default)
      Metadata:
        title           : Original Audio
        ENCODER         : Lavc61.19.100 aac
        BPS             : 189727
        DURATION        : 00:01:01.696000000
        NUMBER_OF_FRAMES: 2893
        NUMBER_OF_BYTES : 1463180
        _STATISTICS_WRITING_APP: mkvpropedit v66.0.0 ('Josie') 64-bit
        _STATISTICS_WRITING_DATE_UTC: 2025-07-07 16:27:33
        _STATISTICS_TAGS: BPS DURATION NUMBER_OF_FRAMES NUMBER_OF_BYTES
Input #1, matroska,webm, from 'D:\Аниме\[Топ-5]\Стальная тревога!\ТВ-3\Full Metal Panic! Fumoffu [Opening & Ending]\Full Metal Panic! Fumoffu ED1.mkv':
  Metadata:
    encoder         : libebml v0.7.7 + libmatroska v0.8.1
    creation_time   : 2008-12-30T05:26:57.000000Z
  Duration: 00:01:01.70, start: 0.000000, bitrate: 2273 kb/s
  Stream #1:0(jpn): Video: h264 (High), yuv420p(progressive), 1440x1080, SAR 1:1 DAR 4:3, 29.97 fps, 29.97 tbr, 1k tbn (default)
      Metadata:
        title           : Full Metal Panic? Fumoffu Eizou Tokuten - NC ED1
  Stream #1:1(jpn): Audio: ac3, 48000 Hz, 5.1(side), fltp, 448 kb/s (default)
      Metadata:
        title           : Original Audio
Stream mapping:
  Stream #0:0 (hevc) -> settb:default
  Stream #1:0 (h264) -> settb:default
  psnr:default -> Stream #0:0 (wrapped_avframe)
  Stream #0:1 -> #0:1 (aac (native) -> pcm_s16le (native))
[swscaler @ 000002380d359e40] No accelerated colorspace conversion found from yuv420p to bgr48le.
[swscaler @ 000002380d43d5c0] No accelerated colorspace conversion found from yuv420p to bgr48le.
[swscaler @ 000002380d584400] No accelerated colorspace conversion found from yuv420p to bgr48le.
[swscaler @ 000002380ae952c0] No accelerated colorspace conversion found from yuv420p to bgr48le.
[swscaler @ 0000023810daf640] No accelerated colorspace conversion found from yuv420p to bgr48le.
[swscaler @ 0000023810e0d280] No accelerated colorspace conversion found from yuv420p to bgr48le.
[swscaler @ 0000023810eed2c0] No accelerated colorspace conversion found from yuv420p to bgr48le.
[swscaler @ 0000023810f49040] No accelerated colorspace conversion found from yuv420p to bgr48le.
[swscaler @ 0000023810fb2280] No accelerated colorspace conversion found from yuv420p to bgr48le.
[swscaler @ 000002381102a040] No accelerated colorspace conversion found from yuv420p to bgr48le.
[swscaler @ 0000023811091040] No accelerated colorspace conversion found from yuv420p to bgr48le.
[swscaler @ 000002381114e040] No accelerated colorspace conversion found from yuv420p to bgr48le.
[swscaler @ 00000238111a9040] No accelerated colorspace conversion found from yuv420p to bgr48le.
[swscaler @ 000002381120e040] No accelerated colorspace conversion found from yuv420p to bgr48le.
[swscaler @ 000002381122b140] No accelerated colorspace conversion found from yuv420p to bgr48le.
[swscaler @ 00000238112fb180] No accelerated colorspace conversion found from yuv420p to bgr48le.
Output #0, null, to 'pipe:':
  Metadata:
    encoder         : Lavf61.7.100
  Stream #0:0: Video: wrapped_avframe, yuv420p10le(tv, bt709, progressive), 1440x1080 [SAR 1:1 DAR 4:3], q=2-31, 200 kb/s, 29.97 fps, 29.97 tbn
      Metadata:
        encoder         : Lavc61.19.100 wrapped_avframe
  Stream #0:1(jpn): Audio: pcm_s16le, 48000 Hz, 6 channels, s16, 4608 kb/s (default)
      Metadata:
        title           : Original Audio
        _STATISTICS_TAGS: BPS DURATION NUMBER_OF_FRAMES NUMBER_OF_BYTES
        BPS             : 189727
        DURATION        : 00:01:01.696000000
        NUMBER_OF_FRAMES: 2893
        NUMBER_OF_BYTES : 1463180
        _STATISTICS_WRITING_APP: mkvpropedit v66.0.0 ('Josie') 64-bit
        _STATISTICS_WRITING_DATE_UTC: 2025-07-07 16:27:33
        encoder         : Lavc61.19.100 pcm_s16le
frame=   42 fps=0.0 q=-0.0 size=N/A time=00:00:01.40 bitrate=N/A speed=2.65x    frame=  101 fps= 96 q=-0.0 size=N/A time=00:00:03.37 bitrate=N/A speed= 3.2x    frame=  155 fps= 99 q=-0.0 size=N/A time=00:00:05.17 bitrate=N/A speed= 3.3x    frame=  210 fps=101 q=-0.0 size=N/A time=00:00:07.00 bitrate=N/A speed=3.37x    frame=  260 fps=100 q=-0.0 size=N/A time=00:00:08.67 bitrate=N/A speed=3.33x    frame=  313 fps=101 q=-0.0 size=N/A time=00:00:10.44 bitrate=N/A speed=3.35x    frame=  365 fps=101 q=-0.0 size=N/A time=00:00:12.17 bitrate=N/A speed=3.36x    frame=  425 fps=102 q=-0.0 size=N/A time=00:00:14.18 bitrate=N/A speed=3.42x    frame=  480 fps=103 q=-0.0 size=N/A time=00:00:16.01 bitrate=N/A speed=3.44x    frame=  523 fps=101 q=-0.0 size=N/A time=00:00:17.45 bitrate=N/A speed=3.37x    frame=  581 fps=102 q=-0.0 size=N/A time=00:00:19.38 bitrate=N/A speed= 3.4x    frame=  640 fps=103 q=-0.0 size=N/A time=00:00:21.35 bitrate=N/A speed=3.44x    frame=  691 fps=103 q=-0.0 size=N/A time=00:00:23.05 bitrate=N/A speed=3.43x    frame=  748 fps=103 q=-0.0 size=N/A time=00:00:24.95 bitrate=N/A speed=3.44x    frame=  796 fps=103 q=-0.0 size=N/A time=00:00:26.55 bitrate=N/A speed=3.42x    frame=  852 fps=103 q=-0.0 size=N/A time=00:00:28.42 bitrate=N/A speed=3.44x    frame=  906 fps=103 q=-0.0 size=N/A time=00:00:30.23 bitrate=N/A speed=3.44x    frame=  957 fps=103 q=-0.0 size=N/A time=00:00:31.93 bitrate=N/A speed=3.43x    frame= 1009 fps=103 q=-0.0 size=N/A time=00:00:33.66 bitrate=N/A speed=3.43x    frame= 1062 fps=103 q=-0.0 size=N/A time=00:00:35.43 bitrate=N/A speed=3.43x    frame= 1110 fps=102 q=-0.0 size=N/A time=00:00:37.03 bitrate=N/A speed=3.41x    frame= 1168 fps=103 q=-0.0 size=N/A time=00:00:38.97 bitrate=N/A speed=3.43x    frame= 1223 fps=103 q=-0.0 size=N/A time=00:00:40.80 bitrate=N/A speed=3.44x    frame= 1271 fps=103 q=-0.0 size=N/A time=00:00:42.40 bitrate=N/A speed=3.42x    frame= 1333 fps=103 q=-0.0 size=N/A time=00:00:44.47 bitrate=N/A speed=3.45x    frame= 1387 fps=103 q=-0.0 size=N/A time=00:00:46.27 bitrate=N/A speed=3.44x    frame= 1440 fps=103 q=-0.0 size=N/A time=00:00:48.04 bitrate=N/A speed=3.45x    frame= 1489 fps=103 q=-0.0 size=N/A time=00:00:49.68 bitrate=N/A speed=3.44x    frame= 1546 fps=103 q=-0.0 size=N/A time=00:00:51.58 bitrate=N/A speed=3.45x    frame= 1599 fps=103 q=-0.0 size=N/A time=00:00:53.35 bitrate=N/A speed=3.44x    frame= 1651 fps=103 q=-0.0 size=N/A time=00:00:55.08 bitrate=N/A speed=3.44x    frame= 1702 fps=103 q=-0.0 size=N/A time=00:00:56.79 bitrate=N/A speed=3.44x    frame= 1755 fps=103 q=-0.0 size=N/A time=00:00:58.55 bitrate=N/A speed=3.44x    frame= 1807 fps=103 q=-0.0 size=N/A time=00:01:00.29 bitrate=N/A speed=3.44x    [Parsed_psnr_10 @ 000002387b390b80] PSNR y:50.223750 u:53.200847 v:52.817791 average:50.968796 min:45.658576 max:inf
[out#0/null @ 000002387b3c1dc0] video:794KiB audio:34716KiB subtitle:0KiB other streams:0KiB global headers:0KiB muxing overhead: unknown
frame= 1848 fps=103 q=-0.0 Lsize=N/A time=00:01:01.66 bitrate=N/A speed=3.44x    
